# xmcd CD database file
#
# Track frame offsets:
#	150
#	13660
#	25765
#	42012
#	57265
#	73734
#	84391
#	97914
#	111398
#	126680
#	138037
#	153044
#	168926
#	179569
#	196269
#	207391
#
# Disc length: 2973 seconds
#
# Revision: 1
# Processed by: cddbd v1.5.1PL2 Copyright (c) Steve Scherf et al.
# Submitted via: Feurio! 1.68 - http://www.feurio.com
#
DISCID=d50b9b10
DTITLE=Slim Whitman - A Closer Walk with Thee
DYEAR=1999
DGENRE=Country
TTITLE0=He
TTITLE1=I'll Fly Away
TTITLE2=Who at My Door is Standing
TTITLE3=Suppertime
TTITLE4=Precious Memories
TTITLE5=Under His Wings
TTITLE6=I Know Who Holds Tomorrow
TTITLE7=A Closer Walk With The
TTITLE8=How Great Thou Art
TTITLE9=Have Thine own Way Lord
TTITLE10=I Will Pilot Thee
TTITLE11=Whispering Hope
TTITLE12=He Keeps Me Singing
TTITLE13=Face to Face
TTITLE14=Everybody Needs Someone to care
TTITLE15=God be with you
EXTD=
EXTT0=
EXTT1=
EXTT2=
EXTT3=
EXTT4=
EXTT5=
EXTT6=
EXTT7=
EXTT8=
EXTT9=
EXTT10=
EXTT11=
EXTT12=
EXTT13=
EXTT14=
EXTT15=
PLAYORDER=
